<svg width="749" height="477" viewBox="0 0 749 477" fill="none" xmlns="http://www.w3.org/2000/svg">
<path d="M723.5 5H664.5V18.5H660C646.008 9.05866 633.135 6.64054 605.5 5H561.5C475.945 25.2732 448.049 49.0641 433 113V148.5C440.049 184.636 462.312 208.353 533 256.5V288.5H579.5C614.463 298.187 628.373 306.899 634 333.5V366C620.399 391.213 609.058 396.68 586.5 401H559C523.704 394.003 508.129 380.698 485.5 345.5C480.66 332.26 475.91 329.584 466.5 327H450.5C440.051 331.271 437.12 335.549 435.5 345.5V360C444.115 388.596 451.25 404.229 467.5 431.5C489.603 460.546 508.664 471.593 561.5 476.5H627.5C699.659 454.25 725.772 427.826 748.5 357.5V313C736.375 266.061 716.542 245.721 662.5 218L651 184L603.5 181C563.732 156.084 551.287 142.502 547.5 119V98.5C563 43 648 42.5 670 98.5C689 136.5 725 139 726.5 98.5V5H723.5Z" fill="url(#paint0_linear_3316_42)"/>
<path d="M158 3.5H182V45C182 45 165 52 157 62C156.701 70.4143 157.341 74.9968 159.5 83L208.5 275L260.5 68.5C258.111 55.1845 253.831 50.4573 243 45V3.5H269.5C289.879 4.63343 299.182 7.53853 308.5 20.5C322.435 9.53078 332.444 5.63275 355 3.5H383C395.247 6.11571 401.388 8.34018 404.5 20.5V33.5C401.62 40.7426 375 55.0571 368 57.5285C361 60 354.358 64.2706 346 68.5L342.5 72.5L311.5 195.5L334 226L291 259C279.848 308.961 271.796 336.88 254 386.5V406.5C255.719 419.417 266.972 428.372 297 446V460C293.935 466.397 291.813 468.915 287.5 472H231C212.433 470.677 205.06 467.78 197 459C176.848 468.963 166.455 472.008 149.5 473H116.5C104.802 470.677 101.094 467.37 98 459V443.5C122.193 433.988 131.326 428.833 138.5 420V386.5L100.5 259L59.5 226L82.5 195.5L45 62C35.3927 56.6211 40 53.5 21.5 48.1479C3 42.7958 8.57303 39.5543 1 34V16C6.01056 7.90547 10.159 4.80392 21.5 3.5L25.5 1H59.5C78.6807 4.16438 88.3228 7.08658 100 18C110.777 9.51285 117.117 6.30837 129 3.5H158Z" fill="url(#paint1_linear_3316_42)"/>
<path d="M723.5 5H664.5V18.5H660C646.008 9.05866 633.135 6.64054 605.5 5H561.5C475.945 25.2732 448.049 49.0641 433 113V148.5C440.049 184.636 462.312 208.353 533 256.5V288.5H579.5C614.463 298.187 628.373 306.899 634 333.5V366C620.399 391.213 609.058 396.68 586.5 401H559C523.704 394.003 508.129 380.698 485.5 345.5C480.66 332.26 475.91 329.584 466.5 327H450.5C440.051 331.271 437.12 335.549 435.5 345.5V360C444.115 388.596 451.25 404.229 467.5 431.5C489.603 460.546 508.664 471.593 561.5 476.5H627.5C699.659 454.25 725.772 427.826 748.5 357.5V313C736.375 266.061 716.542 245.721 662.5 218L651 184L603.5 181C563.732 156.084 551.287 142.502 547.5 119V98.5C563 43 648 42.5 670 98.5C689 136.5 725 139 726.5 98.5V5H723.5Z" stroke="black"/>
<path d="M158 3.5H182V45C182 45 165 52 157 62C156.701 70.4143 157.341 74.9968 159.5 83L208.5 275L260.5 68.5C258.111 55.1845 253.831 50.4573 243 45V3.5H269.5C289.879 4.63343 299.182 7.53853 308.5 20.5C322.435 9.53078 332.444 5.63275 355 3.5H383C395.247 6.11571 401.388 8.34018 404.5 20.5V33.5C401.62 40.7426 375 55.0571 368 57.5285C361 60 354.358 64.2706 346 68.5L342.5 72.5L311.5 195.5L334 226L291 259C279.848 308.961 271.796 336.88 254 386.5V406.5C255.719 419.417 266.972 428.372 297 446V460C293.935 466.397 291.813 468.915 287.5 472H231C212.433 470.677 205.06 467.78 197 459C176.848 468.963 166.455 472.008 149.5 473H116.5C104.802 470.677 101.094 467.37 98 459V443.5C122.193 433.988 131.326 428.833 138.5 420V386.5L100.5 259L59.5 226L82.5 195.5L45 62C35.3927 56.6211 40 53.5 21.5 48.1479C3 42.7958 8.57303 39.5543 1 34V16C6.01056 7.90547 10.159 4.80392 21.5 3.5L25.5 1H59.5C78.6807 4.16438 88.3228 7.08658 100 18C110.777 9.51285 117.117 6.30837 129 3.5H158Z" stroke="black"/>
<defs>
<linearGradient id="paint0_linear_3316_42" x1="1" y1="238.75" x2="748.5" y2="238.75" gradientUnits="userSpaceOnUse">
<stop stop-color="#667EEA"/>
<stop offset="1" stop-color="#764BA2"/>
</linearGradient>
<linearGradient id="paint1_linear_3316_42" x1="1" y1="238.75" x2="748.5" y2="238.75" gradientUnits="userSpaceOnUse">
<stop stop-color="#667EEA"/>
<stop offset="1" stop-color="#764BA2"/>
</linearGradient>
</defs>
</svg>
